<svg aria-roledescription="pie" role="graphics-document document" style="max-width: 100%;" viewBox="0 0 678.4666595458984 450" xmlns="http://www.w3.org/2000/svg" width="100%" id="graph-div" height="100%" xmlns:xlink="http://www.w3.org/1999/xlink"><style>@import url("https://cdnjs.cloudflare.com/ajax/libs/font-awesome/6.5.2/css/all.min.css");'</style><style>#graph-div{font-family:"trebuchet ms",verdana,arial,sans-serif;font-size:16px;fill:#ccc;}#graph-div .error-icon{fill:#a44141;}#graph-div .error-text{fill:#ddd;stroke:#ddd;}#graph-div .edge-thickness-normal{stroke-width:2px;}#graph-div .edge-thickness-thick{stroke-width:3.5px;}#graph-div .edge-pattern-solid{stroke-dasharray:0;}#graph-div .edge-pattern-dashed{stroke-dasharray:3;}#graph-div .edge-pattern-dotted{stroke-dasharray:2;}#graph-div .marker{fill:lightgrey;stroke:lightgrey;}#graph-div .marker.cross{stroke:lightgrey;}#graph-div svg{font-family:"trebuchet ms",verdana,arial,sans-serif;font-size:16px;}#graph-div .pieCircle{stroke:black;stroke-width:2px;opacity:0.7;}#graph-div .pieOuterCircle{stroke:black;stroke-width:2px;fill:none;}#graph-div .pieTitleText{text-anchor:middle;font-size:25px;fill:hsl(28.5714285714, 17.3553719008%, 86.2745098039%);font-family:"trebuchet ms",verdana,arial,sans-serif;}#graph-div .slice{font-family:"trebuchet ms",verdana,arial,sans-serif;fill:#ccc;font-size:17px;}#graph-div .legend text{fill:hsl(28.5714285714, 17.3553719008%, 86.2745098039%);font-family:"trebuchet ms",verdana,arial,sans-serif;font-size:17px;}#graph-div :root{--mermaid-font-family:"trebuchet ms",verdana,arial,sans-serif;}</style><g></g><g transform="translate(225,225)"><circle class="pieOuterCircle" r="186" cy="0" cx="0"></circle><path class="pieCircle" fill="#0b0000" d="M0,-185A185,185,0,0,1,156.201,99.128L0,0Z"></path><path class="pieCircle" fill="#4d1037" d="M156.201,99.128A185,185,0,0,1,-68.103,172.009L0,0Z"></path><path class="pieCircle" fill="#3f5258" d="M-68.103,172.009A185,185,0,0,1,-184.635,11.616L0,0Z"></path><path class="pieCircle" fill="#4f2f1b" d="M-184.635,11.616A185,185,0,0,1,-108.74,-149.668L0,0Z"></path><path class="pieCircle" fill="#6e0a0a" d="M-108.74,-149.668A185,185,0,0,1,-46.008,-179.188L0,0Z"></path><path class="pieCircle" fill="#3b0048" d="M-46.008,-179.188A185,185,0,0,1,-23.187,-183.541L0,0Z"></path><path class="pieCircle" fill="#995a01" d="M-23.187,-183.541A185,185,0,0,1,0,-185L0,0Z"></path><text class="slice" style="text-anchor: middle;" transform="translate(121.5875518560861,-66.84332228161297)">34%</text><text class="slice" style="text-anchor: middle;" transform="translate(42.87610796952391,131.95909163595257)">22%</text><text class="slice" style="text-anchor: middle;" transform="translate(-112.25110796952394,81.55520375558066)">18%</text><text class="slice" style="text-anchor: middle;" transform="translate(-125.5447535296602,-59.076876704653834)">16%</text><text class="slice" style="text-anchor: middle;" transform="translate(-59.07687670465387,-125.54475352966018)">6%</text><text class="slice" style="text-anchor: middle;" transform="translate(-25.999157398769412,-136.29235603860553)">2%</text><text class="slice" style="text-anchor: middle;" transform="translate(-8.712184584692208,-138.47620856942268)">2%</text><text class="pieTitleText" y="-200" x="0"></text><g transform="translate(216,-77)" class="legend"><rect style="fill: rgb(11, 0, 0); stroke: rgb(11, 0, 0);" height="18" width="18"></rect><text y="14" x="22">Product-Market Fit ❗</text></g><g transform="translate(216,-55)" class="legend"><rect style="fill: rgb(77, 16, 55); stroke: rgb(77, 16, 55);" height="18" width="18"></rect><text y="14" x="22">Marketing</text></g><g transform="translate(216,-33)" class="legend"><rect style="fill: rgb(63, 82, 88); stroke: rgb(63, 82, 88);" height="18" width="18"></rect><text y="14" x="22">Team ❗</text></g><g transform="translate(216,-11)" class="legend"><rect style="fill: rgb(79, 47, 27); stroke: rgb(79, 47, 27);" height="18" width="18"></rect><text y="14" x="22">Finance</text></g><g transform="translate(216,11)" class="legend"><rect style="fill: rgb(110, 10, 10); stroke: rgb(110, 10, 10);" height="18" width="18"></rect><text y="14" x="22">Tech ❗</text></g><g transform="translate(216,33)" class="legend"><rect style="fill: rgb(59, 0, 72); stroke: rgb(59, 0, 72);" height="18" width="18"></rect><text y="14" x="22">Operations</text></g><g transform="translate(216,55)" class="legend"><rect style="fill: rgb(153, 90, 1); stroke: rgb(153, 90, 1);" height="18" width="18"></rect><text y="14" x="22">Legal</text></g></g></svg>